 <svg version="1.0" xmlns="http://www.w3.org/2000/svg"  width="110px" height="110px" viewBox="0 0 276.000000 276.000000"  preserveAspectRatio="xMidYMid meet">  <g transform="translate(0.000000,276.000000) scale(0.100000,-0.100000)" fill="#FFD700" stroke="none"> <path d="M1330 2214 c-80 -58 -173 -97 -310 -131 -59 -14 -69 -19 -45 -21 35 -5 127 13 170 33 17 7 50 21 75 31 25 10 63 30 85 45 62 41 80 43 117 17 18 -13 36 -27 39 -31 3 -5 9 -8 13 -8 3 1 16 -5 29 -13 12 -7 39 -19 60 -26 21 -6 36 -17 34 -23 -6 -19 -33 -20 -50 -2 -9 9 -19 16 -22 15 -21 -1 -25 1 -20 10 4 6 -1 7 -11 3 -12 -4 -15 -3 -10 5 5 8 -2 12 -19 12 -20 0 -26 4 -21 16 4 9 2 13 -5 8 -6 -3 -21 -1 -33 5 -18 10 -32 5 -101 -33 -115 -66 -283 -116 -391 -116 -44 0 -44 0 -44 -36 l0 -36 -37 23 c-21 13 -51 38 -67 57 -39 44 -49 31 -49 -65 -1 -156 77 -232 266 -259 79 -11 66 4 -80 91 -58 35 -102 75 -119 106 -22 44 -12 46 33 7 21 -19 67 -56 103 -83 36 -27 83 -64 104 -82 37 -31 41 -32 58 -16 10 9 18 23 18 32 -1 43 -178 179 -195 150 -7 -11 22 -38 41 -39 15 0 92 -68 104 -91 14 -25 -1 -24 -28 1 -12 11 -33 25 -47 30 -15 6 -23 14 -20 20 3 5 1 11 -4 11 -20 3 -26 5 -49 17 -12 7 -20 17 -17 23 4 5 3 9 -2 8 -21 -4 -34 2 -27 13 4 6 3 8 -3 5 -6 -4 -31 9 -57 29 -37 28 -46 32 -45 17 1 -29 54 -128 67 -125 7 1 12 -2 12 -7 0 -5 12 -14 28 -20 29 -13 87 -60 81 -66 -7 -7 -59 7 -59 16 0 5 -7 9 -15 9 -25 0 -93 74 -115 124 -23 54 -25 75 -9 110 l12 25 36 -28 c20 -16 52 -37 71 -49 l35 -21 0 37 0 37 70 7 c138 14 276 60 390 131 l40 25 64 -39 c35 -21 89 -48 120 -60 118 -44 311 -75 311 -49 0 6 -19 10 -42 10 -69 1 -261 47 -252 61 7 11 61 12 68 1 3 -5 68 -17 146 -27 145 -19 156 -25 130 -65 -9 -13 -11 -13 -20 0 -13 20 -33 0 -28 -29 3 -21 4 -21 41 5 30 22 37 34 37 59 0 18 -6 37 -12 42 -7 6 -56 13 -108 16 -150 9 -274 50 -392 129 -31 21 -65 38 -75 38 -10 -1 -34 -12 -53 -26z"/> <path d="M813 2057 c-2 -4 -1 -16 2 -28 6 -18 9 -19 23 -6 20 17 61 32 82 29 12 -2 12 0 -1 8 -19 11 -98 9 -106 -3z"/> <path d="M1363 2060 c-28 -12 -30 -24 -3 -17 11 3 20 2 21 -1 6 -52 7 -52 -30 -52 -40 0 -72 -14 -49 -21 7 -3 55 -2 107 1 l94 5 -28 33 c-22 27 -75 64 -87 61 -2 0 -13 -4 -25 -9z"/> <path d="M2016 2034 c-10 -25 -7 -34 9 -28 12 5 15 -5 15 -55 0 -98 -36 -163 -111 -201 -43 -22 -166 -47 -176 -36 -5 5 6 19 22 32 188 147 235 188 235 200 0 10 -20 -1 -57 -31 -164 -133 -218 -175 -225 -175 -5 0 -8 8 -8 19 0 25 37 63 103 105 56 36 77 56 58 56 -27 0 -149 -84 -186 -128 -25 -30 -25 -32 -9 -57 9 -14 19 -26 23 -26 3 -1 16 -3 27 -4 12 -1 26 -5 33 -9 12 -8 107 8 156 26 91 34 138 108 138 218 0 84 -29 142 -47 94z"/> <path d="M1460 1940 c0 -5 5 -10 11 -10 5 0 8 -4 5 -9 -3 -4 -62 -10 -131 -13 -116 -5 -146 -10 -133 -23 3 -3 54 -1 114 4 67 6 136 7 179 1 38 -5 72 -6 75 -3 3 2 -10 18 -28 34 -32 28 -92 41 -92 19z"/> <path d="M1384 1834 l1 -39 -120 -6 c-148 -8 -141 -7 -129 -19 7 -7 41 -7 105 0 116 12 242 12 334 0 38 -5 71 -7 74 -5 7 7 -20 63 -38 79 -11 10 -49 17 -123 22 l-106 7 2 -39z m113 13 c28 -3 61 -10 73 -17 24 -13 22 -35 -3 -34 -9 0 -51 1 -92 2 -72 2 -75 3 -75 26 0 24 14 36 35 30 6 -1 33 -5 62 -7z"/> <path d="M1154 1829 c-21 -41 -17 -42 16 -7 35 36 34 35 14 35 -8 0 -22 -13 -30 -28z"/> <path d="M1315 1743 c-97 -6 -106 -22 -10 -19 55 2 78 -1 82 -11 3 -8 11 -10 21 -4 18 9 130 5 172 -6 14 -3 28 -6 31 -5 3 1 18 -11 32 -26 29 -31 41 -79 17 -74 -34 8 -147 17 -168 14 -14 -2 -22 -9 -19 -16 4 -10 -11 -12 -62 -8 -64 4 -70 2 -100 -24 -32 -29 -76 -130 -61 -139 12 -7 27 16 35 52 10 47 66 93 113 93 46 0 88 -38 98 -87 7 -34 38 -70 48 -55 6 10 -16 88 -38 130 -9 17 -13 33 -8 35 8 5 108 -6 159 -17 17 -4 34 -3 37 3 10 16 -15 112 -34 131 -24 24 -204 41 -345 33z"/> <path d="M720 1719 c0 -6 17 -29 39 -50 35 -36 43 -39 93 -39 57 0 118 16 118 30 0 16 -22 22 -31 9 -6 -10 -9 -11 -9 -1 0 6 -7 12 -15 12 -8 0 -15 -5 -15 -11 0 -5 5 -7 12 -3 7 4 8 3 4 -4 -4 -7 -27 -12 -52 -12 -30 0 -43 4 -39 11 4 6 13 8 19 6 7 -3 19 -1 27 5 11 8 10 9 -3 4 -10 -3 -18 0 -18 6 0 6 -3 9 -6 5 -6 -6 -17 -2 -86 27 -26 11 -38 13 -38 5z"/> <path d="M1999 1708 c-11 -8 -10 -9 4 -4 25 8 21 -10 -9 -33 -32 -25 -60 -26 -113 -5 -22 8 -52 14 -68 12 l-28 -3 33 -18 c44 -24 118 -37 155 -26 34 10 77 46 77 65 0 16 -34 24 -51 12z"/> <path d="M1031 1636 c-8 -10 -9 -16 -1 -21 17 -10 -8 -45 -42 -60 -20 -8 -41 -10 -60 -4 -32 9 -33 9 -50 9 -9 0 -8 3 2 10 11 7 9 11 -14 20 -37 14 -43 7 -23 -24 12 -18 32 -28 73 -36 73 -15 118 2 139 55 21 49 4 85 -24 51z"/> <path d="M1710 1635 c0 -33 37 -84 74 -101 31 -15 38 -15 92 2 33 10 62 22 66 27 10 15 -20 40 -39 32 -14 -5 -15 -8 -4 -14 11 -7 9 -11 -7 -20 -29 -15 -52 -14 -52 4 0 8 -4 15 -10 15 -5 0 -10 9 -10 20 0 11 -12 26 -30 35 -49 25 -57 16 -16 -20 21 -19 36 -40 34 -47 -3 -8 -22 6 -51 37 -37 39 -47 46 -47 30z"/> <path d="M955 1590 c-37 -39 -15 -39 27 0 22 20 28 30 17 30 -8 0 -28 -13 -44 -30z"/> <path d="M1210 1608 c-99 -10 -125 -17 -113 -29 6 -6 29 -6 62 1 30 5 69 10 87 10 18 0 36 5 39 11 10 15 7 16 -75 7z"/> <path d="M830 1547 c0 -15 64 -178 85 -214 90 -163 276 -326 442 -389 l42 -16 82 41 c207 106 338 243 418 436 41 97 49 135 29 135 -10 0 -18 -14 -22 -37 -7 -48 -64 -166 -115 -240 -71 -104 -205 -216 -332 -276 -65 -31 -75 -33 -83 -12 -3 10 -1 15 7 13 14 -3 151 61 155 74 2 4 8 8 14 8 23 0 142 107 208 185 58 71 141 266 113 265 -5 0 -31 -49 -59 -108 -79 -164 -209 -293 -374 -371 l-63 -30 -41 21 c-83 42 -183 117 -249 187 -52 55 -79 97 -122 184 -30 61 -55 104 -55 95 0 -16 31 -97 49 -129 6 -9 7 -20 4 -23 -10 -9 -33 15 -33 34 0 10 -5 20 -10 22 -6 2 -12 14 -15 27 -2 14 -9 29 -15 35 -5 5 -10 17 -10 26 -1 21 -50 78 -50 57z"/> <path d="M1195 1540 c4 -6 11 -7 17 -4 7 5 9 2 6 -8 -4 -9 -9 -36 -13 -61 l-7 -45 -50 -7 c-27 -4 -51 -5 -53 -3 -2 2 -5 25 -7 52 l-3 48 40 5 c22 2 45 9 50 15 7 7 -6 9 -45 4 -33 -4 -60 -14 -67 -23 -15 -19 -18 -67 -4 -59 4 3 6 -5 4 -17 -2 -12 2 -30 9 -40 12 -16 18 -16 78 -4 57 11 65 16 68 37 1 14 7 43 13 64 8 30 8 41 -3 47 -18 12 -40 11 -33 -1z"/> <path d="M1545 1520 c8 -16 15 -44 15 -63 0 -25 6 -36 23 -44 27 -14 118 -35 123 -30 2 2 9 29 16 61 9 48 9 60 -4 72 -14 14 -107 34 -161 34 -27 0 -27 0 -12 -30z m89 -10 c50 0 70 -20 62 -61 -7 -40 -31 -47 -76 -24 -44 23 -75 107 -33 91 8 -3 29 -6 47 -6z"/> <path d="M1318 1413 c-17 -2 -28 -11 -28 -20 0 -12 8 -14 41 -9 23 3 46 3 51 0 5 -4 32 -8 59 -9 56 -4 80 -21 68 -51 -7 -19 -18 -22 -129 -29 -67 -4 -118 -10 -114 -14 5 -5 66 -6 136 -3 l126 4 6 42 c12 75 4 81 -124 89 -36 3 -77 3 -92 0z"/> <path d="M1128 1353 c-40 -4 -45 -12 -27 -46 19 -37 51 -67 72 -67 10 0 28 -11 39 -25 11 -14 26 -25 33 -25 23 0 29 22 9 37 -10 7 -19 21 -20 31 0 9 -1 29 -2 44 -2 31 -26 59 -50 56 -9 -1 -34 -3 -54 -5z m86 -46 c10 -40 7 -47 -24 -47 -16 0 -30 5 -30 11 0 6 -7 18 -16 27 -15 14 -15 17 0 27 23 18 63 7 70 -18z"/> <path d="M1557 1334 c-3 -16 -8 -38 -12 -50 -5 -15 0 -23 20 -32 48 -22 73 -15 102 28 23 36 25 43 12 56 -9 8 -38 17 -66 20 -49 6 -50 6 -56 -22z m91 -19 c10 -9 -22 -46 -44 -51 -28 -7 -44 7 -39 35 2 9 4 20 4 24 1 7 70 -1 79 -8z"/> <path d="M1382 1249 c2 -7 19 -14 37 -15 50 -3 55 -16 24 -57 -35 -45 -43 -46 -44 -4 -1 29 -2 28 -11 -13 l-10 -45 -14 27 c-7 14 -20 28 -29 32 -8 3 -15 11 -15 19 0 7 -9 13 -19 13 -15 0 -17 -4 -11 -16 11 -21 97 -100 108 -100 11 0 55 47 85 92 23 34 26 36 45 22 19 -13 52 -10 52 5 -1 22 -20 33 -48 28 -17 -4 -32 -2 -34 4 -2 5 -30 13 -62 16 -47 5 -58 3 -54 -8z"/> <path d="M515 890 c-4 -6 -14 -10 -24 -10 -27 0 -45 -26 -52 -79 l-6 -46 -2 40 c0 23 6 50 15 63 25 36 9 36 -21 0 -23 -27 -26 -39 -22 -75 8 -72 64 -115 135 -104 35 6 37 9 43 49 4 35 2 45 -12 53 -38 20 -47 12 -41 -36 5 -51 -9 -59 -46 -25 -42 39 -19 140 31 140 8 0 22 -9 32 -20 24 -26 35 -25 35 4 0 32 -51 68 -65 46z"/> <path d="M1156 874 c20 -29 7 -46 -27 -37 -20 6 -49 -12 -49 -30 0 -5 10 -2 22 9 l22 19 -17 -25 c-9 -13 -17 -34 -18 -45 -1 -17 -2 -16 -9 5 l-7 25 -8 -28 c-6 -22 -3 -35 12 -55 18 -24 28 -27 79 -28 l59 -2 -1 98 c0 53 -4 102 -8 108 -4 7 -21 12 -37 12 -29 0 -29 0 -13 -26z m36 -105 l4 -67 -29 2 c-30 2 -57 28 -57 54 0 7 16 29 35 48 19 18 36 39 36 46 2 24 8 -17 11 -83z"/> <path d="M1164 760 c-5 -25 -6 -47 -1 -49 15 -6 18 6 15 50 l-3 44 -11 -45z"/> <path d="M1240 887 c0 -8 9 -22 20 -32 26 -23 52 -6 34 23 -14 22 -54 29 -54 9z"/> <path d="M1775 883 c14 -33 18 -160 5 -168 -15 -9 18 -34 46 -35 20 0 21 4 16 45 -4 42 -3 45 19 46 13 1 29 1 35 0 12 -1 30 38 37 79 2 14 4 -13 4 -60 0 -61 -2 -74 -6 -45 l-7 40 -12 -39 c-13 -45 -3 -66 32 -66 20 0 21 4 20 102 l-1 102 -28 8 c-36 9 -50 1 -33 -20 8 -10 13 -23 12 -29 -1 -7 -2 -22 -3 -34 0 -11 -5 -17 -11 -14 -5 3 -25 3 -45 -1 -27 -5 -35 -11 -35 -27 0 -13 -3 -18 -10 -11 -5 5 -6 29 -1 59 7 43 9 45 10 16 1 -41 16 -31 25 17 6 34 5 35 -48 47 -25 5 -28 4 -21 -12z"/> <path d="M1994 889 c-3 -6 3 -21 15 -32 19 -19 22 -20 37 -6 14 15 14 18 -1 33 -19 19 -41 21 -51 5z"/> <path d="M611 804 c6 -19 9 -43 6 -52 -2 -9 2 -29 10 -44 12 -25 17 -26 76 -26 l63 1 -4 66 c-5 70 -14 91 -41 91 -13 0 -16 -12 -16 -64 0 -74 17 -85 25 -16 l6 45 4 -51 5 -51 -37 0 -38 0 0 58 c0 47 -4 60 -19 69 -39 20 -50 13 -40 -26z"/> <path d="M800 830 c-13 -8 -13 -11 2 -26 14 -15 20 -15 33 -4 13 11 19 11 33 -3 10 -11 12 -17 4 -17 -7 0 -12 -4 -12 -10 0 -18 17 -10 28 13 9 19 11 15 11 -28 0 -43 -1 -48 -13 -33 -12 17 -26 15 -26 -4 0 -5 5 -6 12 -2 7 5 9 2 5 -9 -6 -15 11 -27 37 -27 20 0 4 129 -19 146 -22 16 -73 18 -95 4z"/> <path d="M946 823 c4 -10 8 -40 10 -68 1 -27 2 -56 3 -62 0 -7 13 -13 27 -13 25 0 26 2 20 35 -10 51 0 75 30 75 21 0 25 4 22 23 -2 14 -11 23 -25 25 -27 4 -31 -14 -5 -21 13 -4 13 -5 -4 -6 -12 0 -27 6 -34 14 -7 8 -21 15 -32 15 -16 0 -18 -4 -12 -17z"/> <path d="M1250 776 c0 -77 6 -96 31 -96 17 0 19 8 19 63 0 50 -4 66 -20 80 -11 9 -22 17 -25 17 -3 0 -5 -29 -5 -64z"/> <path d="M1343 833 c-7 -2 -13 -11 -13 -19 0 -20 30 -30 40 -14 13 22 43 3 37 -23 -6 -20 -5 -20 7 -4 21 27 27 20 24 -24 -2 -34 -4 -38 -14 -24 -9 12 -14 13 -19 4 -4 -6 -1 -15 6 -20 8 -5 10 -9 4 -9 -14 0 17 -20 33 -20 8 0 12 19 12 60 0 47 -4 64 -20 80 -19 19 -67 26 -97 13z"/> <path d="M1478 829 c6 -7 12 -36 12 -65 0 -67 7 -84 35 -84 21 0 22 4 21 58 -1 51 1 57 19 57 17 0 20 -7 20 -45 0 -53 9 -70 36 -70 17 0 19 7 19 60 0 47 -4 64 -20 80 -24 24 -75 28 -66 5 4 -10 -1 -15 -14 -15 -11 0 -19 6 -17 13 1 7 -11 13 -28 15 -24 3 -28 1 -17 -9z"/> <path d="M1998 771 c-3 -72 5 -91 41 -91 17 0 19 5 14 63 -5 56 -23 97 -44 97 -4 0 -9 -31 -11 -69z"/> <path d="M2075 818 c16 -51 61 -133 73 -133 15 0 71 124 64 143 -2 7 -14 12 -26 12 -21 0 -22 -3 -16 -45 6 -37 4 -48 -9 -54 -12 -7 -16 -4 -17 14 -3 40 -28 80 -53 83 -20 3 -22 1 -16 -20z"/> <path d="M2251 826 c-41 -49 -27 -125 26 -143 35 -12 78 -2 78 17 0 9 -10 16 -25 17 -14 0 -30 1 -36 2 -17 1 -23 59 -8 79 12 16 14 15 34 -5 11 -13 16 -23 10 -23 -6 0 -8 -4 -5 -10 3 -5 15 -10 26 -10 13 0 19 7 19 24 0 49 -90 88 -119 52z"/> <path d="M1660 772 c0 -19 27 -32 63 -32 32 0 38 3 33 16 -3 9 -6 18 -6 20 0 2 -20 4 -45 4 -25 0 -45 -4 -45 -8z"/> <path d="M788 745 c-9 -21 -8 -28 7 -45 19 -21 65 -28 65 -10 0 6 -8 10 -18 10 -20 0 -42 18 -42 34 0 5 6 2 13 -9 13 -17 14 -17 20 5 12 45 -26 57 -45 15z"/> <path d="M1332 758 c-28 -28 2 -78 48 -78 19 0 20 2 10 15 -7 8 -16 12 -21 9 -5 -3 -4 7 1 21 6 15 10 31 10 36 0 13 -34 11 -48 -3z"/> </g> </svg> 